<mxfile host="app.diagrams.net" modified="2023-11-08T07:00:51.444Z" agent="Mozilla/5.0 (Windows NT 10.0; Win64; x64) AppleWebKit/537.36 (KHTML, like Gecko) Chrome/116.0.0.0 Safari/537.36" etag="SaohLbwqV23_usTW3oQ0" version="22.0.8" type="github">
  <diagram name="Trang-1" id="bbRS-RCyzLvEzfbsz9PI">
    <mxGraphModel dx="1437" dy="1968" grid="1" gridSize="10" guides="1" tooltips="1" connect="1" arrows="1" fold="1" page="1" pageScale="1" pageWidth="827" pageHeight="1169" math="0" shadow="0">
      <root>
        <mxCell id="0" />
        <mxCell id="1" parent="0" />
        <mxCell id="AWEDOzDpkkLyOeppNbpB-4" value="1" style="strokeWidth=2;html=1;shape=mxgraph.flowchart.start_2;whiteSpace=wrap;" vertex="1" parent="1">
          <mxGeometry x="330" y="90" width="60" height="60" as="geometry" />
        </mxCell>
        <mxCell id="AWEDOzDpkkLyOeppNbpB-6" value="2" style="strokeWidth=2;html=1;shape=mxgraph.flowchart.start_2;whiteSpace=wrap;" vertex="1" parent="1">
          <mxGeometry x="260" y="220" width="60" height="60" as="geometry" />
        </mxCell>
        <mxCell id="AWEDOzDpkkLyOeppNbpB-7" value="3" style="strokeWidth=2;html=1;shape=mxgraph.flowchart.start_2;whiteSpace=wrap;" vertex="1" parent="1">
          <mxGeometry x="430" y="220" width="60" height="60" as="geometry" />
        </mxCell>
        <mxCell id="AWEDOzDpkkLyOeppNbpB-9" value="" style="endArrow=classic;html=1;rounded=0;exitX=0.145;exitY=0.855;exitDx=0;exitDy=0;exitPerimeter=0;entryX=0.5;entryY=0;entryDx=0;entryDy=0;entryPerimeter=0;" edge="1" parent="1" source="AWEDOzDpkkLyOeppNbpB-4" target="AWEDOzDpkkLyOeppNbpB-6">
          <mxGeometry width="50" height="50" relative="1" as="geometry">
            <mxPoint x="330" y="320" as="sourcePoint" />
            <mxPoint x="380" y="270" as="targetPoint" />
          </mxGeometry>
        </mxCell>
        <mxCell id="AWEDOzDpkkLyOeppNbpB-11" value="" style="endArrow=classic;html=1;rounded=0;exitX=0.5;exitY=1;exitDx=0;exitDy=0;exitPerimeter=0;entryX=0.5;entryY=0;entryDx=0;entryDy=0;entryPerimeter=0;" edge="1" parent="1" source="AWEDOzDpkkLyOeppNbpB-6" target="AWEDOzDpkkLyOeppNbpB-17">
          <mxGeometry width="50" height="50" relative="1" as="geometry">
            <mxPoint x="330" y="320" as="sourcePoint" />
            <mxPoint x="290" y="370" as="targetPoint" />
          </mxGeometry>
        </mxCell>
        <mxCell id="AWEDOzDpkkLyOeppNbpB-12" value="" style="endArrow=classic;html=1;rounded=0;exitX=0.5;exitY=1;exitDx=0;exitDy=0;exitPerimeter=0;entryX=0.5;entryY=0;entryDx=0;entryDy=0;" edge="1" parent="1" source="AWEDOzDpkkLyOeppNbpB-7" target="AWEDOzDpkkLyOeppNbpB-26">
          <mxGeometry width="50" height="50" relative="1" as="geometry">
            <mxPoint x="330" y="320" as="sourcePoint" />
            <mxPoint x="460" y="540" as="targetPoint" />
          </mxGeometry>
        </mxCell>
        <mxCell id="AWEDOzDpkkLyOeppNbpB-13" value="" style="endArrow=classic;html=1;rounded=0;exitX=0.855;exitY=0.855;exitDx=0;exitDy=0;exitPerimeter=0;entryX=0.5;entryY=0;entryDx=0;entryDy=0;entryPerimeter=0;" edge="1" parent="1" source="AWEDOzDpkkLyOeppNbpB-4" target="AWEDOzDpkkLyOeppNbpB-7">
          <mxGeometry width="50" height="50" relative="1" as="geometry">
            <mxPoint x="330" y="320" as="sourcePoint" />
            <mxPoint x="380" y="270" as="targetPoint" />
          </mxGeometry>
        </mxCell>
        <mxCell id="AWEDOzDpkkLyOeppNbpB-14" value="" style="strokeWidth=2;html=1;shape=mxgraph.flowchart.start_2;whiteSpace=wrap;fillColor=#00FF00;" vertex="1" parent="1">
          <mxGeometry x="330" y="-10" width="60" height="60" as="geometry" />
        </mxCell>
        <mxCell id="AWEDOzDpkkLyOeppNbpB-15" value="" style="endArrow=classic;html=1;rounded=0;exitX=0.5;exitY=1;exitDx=0;exitDy=0;exitPerimeter=0;entryX=0.5;entryY=0;entryDx=0;entryDy=0;entryPerimeter=0;" edge="1" parent="1" source="AWEDOzDpkkLyOeppNbpB-14" target="AWEDOzDpkkLyOeppNbpB-4">
          <mxGeometry width="50" height="50" relative="1" as="geometry">
            <mxPoint x="330" y="320" as="sourcePoint" />
            <mxPoint x="380" y="270" as="targetPoint" />
          </mxGeometry>
        </mxCell>
        <mxCell id="AWEDOzDpkkLyOeppNbpB-16" value="" style="endArrow=classic;html=1;rounded=0;exitX=1;exitY=0.5;exitDx=0;exitDy=0;exitPerimeter=0;entryX=0;entryY=0.5;entryDx=0;entryDy=0;entryPerimeter=0;" edge="1" parent="1" source="AWEDOzDpkkLyOeppNbpB-6" target="AWEDOzDpkkLyOeppNbpB-7">
          <mxGeometry width="50" height="50" relative="1" as="geometry">
            <mxPoint x="330" y="320" as="sourcePoint" />
            <mxPoint x="380" y="270" as="targetPoint" />
          </mxGeometry>
        </mxCell>
        <mxCell id="AWEDOzDpkkLyOeppNbpB-17" value="4" style="strokeWidth=2;html=1;shape=mxgraph.flowchart.start_2;whiteSpace=wrap;" vertex="1" parent="1">
          <mxGeometry x="260" y="340" width="60" height="60" as="geometry" />
        </mxCell>
        <mxCell id="AWEDOzDpkkLyOeppNbpB-18" value="5" style="strokeWidth=2;html=1;shape=mxgraph.flowchart.start_2;whiteSpace=wrap;" vertex="1" parent="1">
          <mxGeometry x="260" y="440" width="60" height="60" as="geometry" />
        </mxCell>
        <mxCell id="AWEDOzDpkkLyOeppNbpB-20" value="" style="endArrow=classic;html=1;rounded=0;exitX=0.5;exitY=1;exitDx=0;exitDy=0;exitPerimeter=0;entryX=0.5;entryY=0;entryDx=0;entryDy=0;entryPerimeter=0;" edge="1" parent="1" source="AWEDOzDpkkLyOeppNbpB-17" target="AWEDOzDpkkLyOeppNbpB-18">
          <mxGeometry width="50" height="50" relative="1" as="geometry">
            <mxPoint x="330" y="430" as="sourcePoint" />
            <mxPoint x="380" y="380" as="targetPoint" />
          </mxGeometry>
        </mxCell>
        <mxCell id="AWEDOzDpkkLyOeppNbpB-21" value="" style="endArrow=classic;html=1;rounded=0;exitX=0.145;exitY=0.855;exitDx=0;exitDy=0;exitPerimeter=0;" edge="1" parent="1" source="AWEDOzDpkkLyOeppNbpB-19">
          <mxGeometry width="50" height="50" relative="1" as="geometry">
            <mxPoint x="330" y="430" as="sourcePoint" />
            <mxPoint x="210" y="570" as="targetPoint" />
          </mxGeometry>
        </mxCell>
        <mxCell id="AWEDOzDpkkLyOeppNbpB-22" value="" style="endArrow=classic;html=1;rounded=0;exitX=0.5;exitY=1;exitDx=0;exitDy=0;exitPerimeter=0;entryX=0.314;entryY=0.013;entryDx=0;entryDy=0;entryPerimeter=0;" edge="1" parent="1" source="AWEDOzDpkkLyOeppNbpB-18" target="AWEDOzDpkkLyOeppNbpB-23">
          <mxGeometry width="50" height="50" relative="1" as="geometry">
            <mxPoint x="330" y="430" as="sourcePoint" />
            <mxPoint x="360" y="570" as="targetPoint" />
          </mxGeometry>
        </mxCell>
        <mxCell id="AWEDOzDpkkLyOeppNbpB-23" value="7" style="strokeWidth=2;html=1;shape=mxgraph.flowchart.start_2;whiteSpace=wrap;" vertex="1" parent="1">
          <mxGeometry x="270" y="640" width="60" height="60" as="geometry" />
        </mxCell>
        <mxCell id="AWEDOzDpkkLyOeppNbpB-24" value="" style="endArrow=classic;html=1;rounded=0;exitX=0.855;exitY=0.855;exitDx=0;exitDy=0;exitPerimeter=0;entryX=0;entryY=0.5;entryDx=0;entryDy=0;entryPerimeter=0;" edge="1" parent="1" source="AWEDOzDpkkLyOeppNbpB-19" target="AWEDOzDpkkLyOeppNbpB-23">
          <mxGeometry width="50" height="50" relative="1" as="geometry">
            <mxPoint x="189.99999999999977" y="709.5" as="sourcePoint" />
            <mxPoint x="360" y="459.5" as="targetPoint" />
          </mxGeometry>
        </mxCell>
        <mxCell id="AWEDOzDpkkLyOeppNbpB-25" value="" style="endArrow=classic;html=1;rounded=0;exitX=1;exitY=0.5;exitDx=0;exitDy=0;exitPerimeter=0;entryX=0;entryY=0.5;entryDx=0;entryDy=0;" edge="1" parent="1" source="AWEDOzDpkkLyOeppNbpB-23" target="AWEDOzDpkkLyOeppNbpB-26">
          <mxGeometry width="50" height="50" relative="1" as="geometry">
            <mxPoint x="330" y="430" as="sourcePoint" />
            <mxPoint x="430" y="570" as="targetPoint" />
          </mxGeometry>
        </mxCell>
        <mxCell id="AWEDOzDpkkLyOeppNbpB-26" value="" style="ellipse;shape=doubleEllipse;whiteSpace=wrap;html=1;aspect=fixed;fillColor=#00FF00;" vertex="1" parent="1">
          <mxGeometry x="427.5" y="637.5" width="65" height="65" as="geometry" />
        </mxCell>
        <mxCell id="AWEDOzDpkkLyOeppNbpB-27" value="" style="endArrow=classic;html=1;rounded=0;exitX=0.145;exitY=0.855;exitDx=0;exitDy=0;exitPerimeter=0;entryX=0.855;entryY=0.145;entryDx=0;entryDy=0;entryPerimeter=0;" edge="1" parent="1" source="AWEDOzDpkkLyOeppNbpB-18" target="AWEDOzDpkkLyOeppNbpB-19">
          <mxGeometry width="50" height="50" relative="1" as="geometry">
            <mxPoint x="269" y="491" as="sourcePoint" />
            <mxPoint x="210" y="570" as="targetPoint" />
          </mxGeometry>
        </mxCell>
        <mxCell id="AWEDOzDpkkLyOeppNbpB-19" value="6" style="strokeWidth=2;html=1;shape=mxgraph.flowchart.start_2;whiteSpace=wrap;" vertex="1" parent="1">
          <mxGeometry x="160" y="550" width="60" height="60" as="geometry" />
        </mxCell>
      </root>
    </mxGraphModel>
  </diagram>
</mxfile>
